<?xml version="1.0" encoding="UTF-8" standalone="no"?>
<!-- Uploaded to: SVG Repo, www.svgrepo.com, Transformed by: SVG Repo Mixer Tools -->

<svg
   fill="#e5e5e5"
   height="800px"
   width="800px"
   version="1.1"
   id="Capa_1"
   viewBox="0 0 490 490"
   xml:space="preserve"
   sodipodi:docname="info-svgrepo-comBlack.svg"
   inkscape:version="1.1.2 (b8e25be833, 2022-02-05)"
   xmlns:inkscape="http://www.inkscape.org/namespaces/inkscape"
   xmlns:sodipodi="http://sodipodi.sourceforge.net/DTD/sodipodi-0.dtd"
   xmlns="http://www.w3.org/2000/svg"
   xmlns:svg="http://www.w3.org/2000/svg"><defs
   id="defs26" /><sodipodi:namedview
   id="namedview24"
   pagecolor="#ffffff"
   bordercolor="#666666"
   borderopacity="1.0"
   inkscape:pageshadow="2"
   inkscape:pageopacity="0.0"
   inkscape:pagecheckerboard="0"
   showgrid="false"
   inkscape:zoom="0.9775"
   inkscape:cx="400.51151"
   inkscape:cy="395.39642"
   inkscape:window-width="1920"
   inkscape:window-height="986"
   inkscape:window-x="-11"
   inkscape:window-y="-11"
   inkscape:window-maximized="1"
   inkscape:current-layer="Capa_1" />

<g
   id="SVGRepo_bgCarrier"
   stroke-width="0" />

<g
   id="SVGRepo_tracerCarrier"
   stroke-linecap="round"
   stroke-linejoin="round" />

<g
   id="SVGRepo_iconCarrier"> <g
   id="g20"> <g
   id="g18"> <g
   id="g6"> <path
   d="M245,490C109.9,490,0,380.1,0,245S109.9,0,245,0s245,109.9,245,245S380.1,490,245,490z M245,62C144.1,62,62,144.1,62,245 s82.1,183,183,183s183-82.1,183-183S345.9,62,245,62z"
   id="path4" /> </g> <g
   id="g16"> <g
   id="g10"> <circle
   cx="241.3"
   cy="159.2"
   r="29.1"
   id="circle8" /> </g> <g
   id="g14"> <polygon
   points="285.1,359.9 270.4,359.9 219.6,359.9 204.9,359.9 204.9,321 219.6,321 219.6,254.8 205.1,254.8 205.1,215.9 219.6,215.9 263.1,215.9 270.4,215.9 270.4,321 285.1,321 "
   id="polygon12" /> </g> </g> </g> </g> </g>

<path
   style="fill:#000000;fill-opacity:0.811765;stroke-width:1.02302"
   d="M 380.56266,798.89625 C 237.2666,792.56106 107.29492,707.4905 42.138718,577.38709 21.414754,536.00564 7.7327544,488.86894 2.379219,440.40921 c -1.78044007,-16.11639 -1.78044007,-64.70203 0,-80.81842 C 12.960374,263.81109 55.21788,177.43932 123.51572,111.99518 189.42942,48.835553 274.44341,10.065936 364.70588,2.0032741 c 16.43891,-1.46839911 54.14933,-1.46839911 70.58824,0 138.09577,12.3353529 260.02429,95.7245199 322.56716,220.6096359 20.72397,41.38145 34.40596,88.51815 39.7595,136.97788 1.78044,16.11639 1.78044,64.70203 0,80.81842 -12.56436,113.73152 -69.63125,213.46803 -160.79214,281.01841 -61.67987,45.70491 -140.20668,74.21549 -212.27621,77.07073 -7.31458,0.28979 -16.29156,0.67087 -19.94885,0.84684 -3.65729,0.17596 -14.4757,-0.0261 -24.04092,-0.44894 z m 48.59335,-101.306 c 55.8223,-5.13856 109.11846,-26.49545 155.49872,-62.31163 11.77827,-9.09552 40.04165,-37.12691 49.49564,-49.08936 33.36331,-42.21574 53.59362,-89.39366 62.28695,-145.25571 3.10873,-19.97617 3.10873,-61.89093 0,-81.8671 -8.42971,-54.16807 -26.37472,-97.27567 -58.28061,-140.00198 -12.32813,-16.50903 -40.99404,-45.05316 -57.76196,-57.51654 -45.83442,-34.0682 -93.75638,-52.97694 -150.21572,-59.2712 -5.34527,-0.59591 -18.92583,-1.08347 -30.17903,-1.08347 -49.12988,0 -90.59683,9.78976 -134.52685,31.75989 -30.27936,15.14321 -54.89043,33.3747 -80.31578,59.49667 -44.38039,45.59636 -71.53843,100.8007 -81.47089,165.60645 -3.23291,21.09351 -3.29476,62.50118 -0.1238,82.87728 10.40241,66.84442 36.87629,120.73083 82.10838,167.12806 25.49582,26.15258 50.61801,44.45733 82.35963,60.0096 20.82853,10.20525 32.85688,14.87313 51.51923,19.9932 36.80258,10.09692 71.05927,13.07416 109.60609,9.52584 z"
   id="path1366"
   transform="scale(0.6125)" /><path
   style="fill:#000000;fill-opacity:0.811765;stroke-width:1.02302"
   d="m 382.35363,305.32466 c -11.21962,-3.02118 -19.54921,-8.73704 -26.50831,-18.19032 -6.37343,-8.65768 -8.88598,-17.58445 -8.35654,-29.68966 0.36215,-8.28021 0.8729,-10.40339 4.17559,-17.35793 14.04209,-29.56865 52.28508,-36.30171 75.32424,-13.26157 10.57905,10.5795 15.41099,25.06825 13.31539,39.92674 -3.82096,27.09197 -31.69211,45.64348 -57.95037,38.57274 z"
   id="path1405"
   transform="scale(0.6125)" /><path
   style="fill:#000000;fill-opacity:0.811765;stroke-width:1.02302"
   d="m 335.03836,556.01023 v -31.20205 h 11.76471 11.7647 v -54.73145 -54.73146 h -11.7647 -11.76471 v -31.20205 -31.20204 h 53.19693 53.19694 v 85.9335 85.9335 h 11.7647 11.76471 v 31.20205 31.20205 H 400 335.03836 Z"
   id="path1444"
   transform="scale(0.6125)" /></svg>
