<!DOCTYPE svg PUBLIC "-//W3C//DTD SVG 1.1//EN" "http://www.w3.org/Graphics/SVG/1.1/DTD/svg11.dtd">
<!-- Uploaded to: SVG Repo, www.svgrepo.com, Transformed by: SVG Repo Mixer Tools -->
<svg fill="#e5e5e5" height="800px" width="800px" version="1.1" id="Capa_1" xmlns="http://www.w3.org/2000/svg" xmlns:xlink="http://www.w3.org/1999/xlink" viewBox="0 0 490 490" xml:space="preserve">
<g id="SVGRepo_bgCarrier" stroke-width="0"/>
<g id="SVGRepo_tracerCarrier" stroke-linecap="round" stroke-linejoin="round"/>
<g id="SVGRepo_iconCarrier"> <g> <g> <g> <path d="M245,490C109.9,490,0,380.1,0,245S109.9,0,245,0s245,109.9,245,245S380.1,490,245,490z M245,62C144.1,62,62,144.1,62,245 s82.1,183,183,183s183-82.1,183-183S345.9,62,245,62z"/> </g> <g> <g> <circle cx="241.3" cy="159.2" r="29.1"/> </g> <g> <polygon points="285.1,359.9 270.4,359.9 219.6,359.9 204.9,359.9 204.9,321 219.6,321 219.6,254.8 205.1,254.8 205.1,215.9 219.6,215.9 263.1,215.9 270.4,215.9 270.4,321 285.1,321 "/> </g> </g> </g> </g> </g>
</svg>