<!DOCTYPE svg PUBLIC "-//W3C//DTD SVG 1.1//EN" "http://www.w3.org/Graphics/SVG/1.1/DTD/svg11.dtd">
<!-- Uploaded to: SVG Repo, www.svgrepo.com, Transformed by: SVG Repo Mixer Tools -->
<svg width="800px" height="800px" viewBox="0 0 24 24" xmlns="http://www.w3.org/2000/svg" fill="#DA2C38">
<g id="SVGRepo_bgCarrier" stroke-width="0"/>
<g id="SVGRepo_tracerCarrier" stroke-linecap="round" stroke-linejoin="round"/>
<g id="SVGRepo_iconCarrier"> <g> <path fill="none" d="M0 0h24v24H0z"/> <path d="M17 12a1 1 0 0 1 1 1v9h-2v-8H8v8H6v-9a1 1 0 0 1 1-1h10zm-5 4v2h-2v-2h2zm0-10a6 6 0 0 1 5.368 3.316l-1.79.895a4 4 0 0 0-7.157 0l-1.789-.895A6 6 0 0 1 12 6zm0-4a10 10 0 0 1 8.946 5.527l-1.789.895A8 8 0 0 0 12 4a8 8 0 0 0-7.157 4.422l-1.79-.895A10 10 0 0 1 12 2z"/> </g> </g>
</svg>