    <svg
      xmlns="http://www.w3.org/2000/svg"
      id="svg5"
      width="794"
      height="454"
      version="1.1"
      viewBox="0 0 210.079 120.121"
    >
      <defs id="defs2">
        <path
          id="rect13879"
          d="M565.566 57.418H778.0120000000001V196.656H565.566z"
        ></path>
        <path
          id="rect10279"
          d="M600.017 67.466H689.0150000000001V219.623H600.017z"
        ></path>
        <clipPath id="clipEmfPath1" clipPathUnits="userSpaceOnUse">
          <path id="path854" d="M0 0h231.967v76.513H0z"></path>
        </clipPath>
      </defs>
      <g id="layer1">
        <g
          id="g972"
          fill="#e5e5e5"
          fillOpacity="1"
          transform="matrix(.40896 0 0 .38652 .398 -49.038)"
        >
          <path
            id="path968"
            fill="#e5e5e5"
            fillOpacity="1"
            d="M512 282.163c-.881-1.49-21.826-38.71-63.998-76.621-21.106-18.932-47.584-38.03-79.667-52.494-32.041-14.455-69.743-24.183-112.337-24.162-42.595-.014-80.296 9.707-112.341 24.162-48.12 21.722-83.626 53.753-107.33 80.244C12.627 259.846.644 281.037 0 282.163l29.331 16.484 13.676 7.749.024-.042.007-.014c.895-1.629 20.324-34.688 56.487-66.326 18.068-15.848 40.244-31.331 66.274-42.786 26.061-11.456 55.91-18.96 90.199-18.974 35.104.014 65.561 7.881 92.056 19.798 39.685 17.848 70.324 45.171 90.808 68.131 10.245 11.462 17.938 21.785 22.98 29.1a202.148 202.148 0 015.574 8.49c.594.966 1.02 1.679 1.286 2.119l.252.448.042.063 9.707-5.518-9.734 5.469z"
            className="st0"
          ></path>
          <path
            id="path970"
            fill="#e5e5e5"
            fillOpacity="1"
            d="M255.999 210.339c-47.71 0-86.388 38.674-86.388 86.391 0 47.71 38.678 86.384 86.388 86.384 47.71 0 86.388-38.674 86.388-86.384-.001-47.716-38.679-86.391-86.388-86.391z"
            className="st0"
          ></path>
        </g>
        <g
          id="text6221"
          fill="#e5e5e5"
          fillOpacity="1"
          strokeWidth="0.392"
          ariaLabel="T R O U V E R"
          fontFamily="Bauhaus 93"
          fontSize="15.698"
          transform="scale(.94344 1.05995)"
        >
          <path
            id="path839"
            d="M73.316 103.076v7.458h-3.112v-7.458H67.82v-3.005h7.872v3.005z"
          ></path>
          <path
            id="path841"
            d="M83.879 102.884v7.65h-3.112v-10.463h3.993q1.824 0 2.829.905 1.119 1.012 1.119 2.568 0 1.586-1.388 2.675l1.794 4.315h-3.265l-1.51-3.373v-2.69h.245q.981 0 .981-.843 0-.744-1.134-.744z"
          ></path>
          <path
            id="path843"
            d="M99.04 99.81q2.223 0 3.81 1.618 1.594 1.617 1.594 3.87 0 2.293-1.602 3.895-1.602 1.602-3.894 1.602-2.276 0-3.886-1.61-1.61-1.61-1.61-3.886 0-2.3 1.618-3.894 1.625-1.594 3.97-1.594zm-.092 3.082q-.958 0-1.633.705-.674.705-.674 1.702 0 .996.674 1.701.683.706 1.633.706.966 0 1.633-.698.674-.705.674-1.71 0-1.003-.674-1.7-.667-.706-1.633-.706z"
          ></path>
          <path
            id="path845"
            d="M117.183 100.071v6.784q0 1.793-1.073 2.867-1.065 1.073-2.844 1.073-1.77 0-2.713-1.043-.935-1.042-.935-2.997v-6.684h3.112v6.677q0 .958.682.958.66 0 .66-.958v-6.677z"
          ></path>
          <path
            id="path847"
            d="M130.52 100.071l-4.56 11.06-4.53-11.06h3.602l.958 3.266 1.058-3.266z"
          ></path>
          <path
            id="path849"
            d="M140.707 104.141v2.33h-2.031q-.414 0-.59.123-.169.123-.169.414 0 .33.176.437.177.1.721.1h2.093v2.989h-2.446q-1.724 0-2.636-.82-.913-.828-.913-2.384v-4.1q0-1.503.859-2.33.866-.829 2.43-.829h2.706v3.005h-1.986q-.805 0-.805.521 0 .307.192.43.192.114.682.114z"
          ></path>
          <path
            id="path851"
            d="M149.729 102.884v7.65h-3.112v-10.463h3.993q1.825 0 2.829.905 1.119 1.012 1.119 2.568 0 1.586-1.387 2.675l1.793 4.315H151.7l-1.51-3.373v-2.69h.245q.981 0 .981-.843 0-.744-1.134-.744z"
          ></path>
        </g>
        <ellipse
          id="path35803"
          cx="97.352"
          cy="61.231"
          fill="#fff"
          strokeWidth="0.265"
          opacity="0"
          rx="10.608"
          ry="8.057"
        ></ellipse>
        <ellipse
          id="path35851"
          cx="31.824"
          cy="55.323"
          fill="#1a1a1a"
          strokeWidth="0.265"
          opacity="0"
          rx="12.219"
          ry="7.52"
        ></ellipse>
        <ellipse
          id="path35875"
          cx="34.912"
          cy="55.323"
          fill="#1a1a1a"
          strokeWidth="0.265"
          opacity="0"
          rx="4.297"
          ry="0.806"
        ></ellipse>
        <path
          id="path35877"
          fill="#1a1a1a"
          strokeWidth="0.265"
          d="M59.62-1.074a22.156 6.177 0 01-.007.152l-22.15-.152z"
          opacity="0"
        ></path>
        <path
          id="Combined-Shape"
          fill="#212738"
          fillOpacity="0.812"
          fillRule="evenodd"
          stroke="none"
          strokeWidth="0.023"
          d="M121.072 46.052a5 5 0 11.114 10 5 5 0 01-.114-10zm.028 2.5a2.5 2.5 0 10.057 5 2.5 2.5 0 00-.057-5z"
          opacity="1"
        ></path>
      </g>
      <style id="style966" type="text/css"></style>
    </svg>
