<?xml version="1.0" encoding="UTF-8" standalone="no"?>
<!-- Created with Inkscape (http://www.inkscape.org/) -->

<svg
   width="794"
   height="454"
   viewBox="0 0 210.07916 120.12084"
   version="1.1"
   id="svg5"
   inkscape:version="1.1.2 (b8e25be833, 2022-02-05)"
   sodipodi:docname="trouverLogoWhite.svg"
   xmlns:inkscape="http://www.inkscape.org/namespaces/inkscape"
   xmlns:sodipodi="http://sodipodi.sourceforge.net/DTD/sodipodi-0.dtd"
   xmlns="http://www.w3.org/2000/svg"
   xmlns:svg="http://www.w3.org/2000/svg">
  <sodipodi:namedview
     id="namedview7"
     pagecolor="#ffffff"
     bordercolor="#666666"
     borderopacity="1.0"
     inkscape:pageshadow="2"
     inkscape:pageopacity="0.0"
     inkscape:pagecheckerboard="0"
     inkscape:document-units="mm"
     showgrid="false"
     inkscape:zoom="0.98520767"
     inkscape:cx="338.50731"
     inkscape:cy="148.19211"
     inkscape:window-width="1920"
     inkscape:window-height="986"
     inkscape:window-x="-11"
     inkscape:window-y="-11"
     inkscape:window-maximized="1"
     inkscape:current-layer="layer1"
     units="px" />
  <defs
     id="defs2">
    <rect
       x="565.56616"
       y="57.417889"
       width="212.44618"
       height="139.23837"
       id="rect13879" />
    <rect
       x="600.01691"
       y="67.466019"
       width="88.997726"
       height="152.15739"
       id="rect10279" />
    <clipPath
       clipPathUnits="userSpaceOnUse"
       id="clipEmfPath1">
      <path
         d="M 0,0 H 231.96724 V 76.512756 H 0 Z"
         id="path854" />
    </clipPath>
    <pattern
       id="EMFhbasepattern"
       patternUnits="userSpaceOnUse"
       width="6"
       height="6"
       x="0"
       y="0" />
  </defs>
  <g
     inkscape:label="Camada 1"
     inkscape:groupmode="layer"
     id="layer1">
    <g
       id="g972"
       transform="matrix(0.40896073,0,0,0.38652097,0.39813818,-49.038286)"
       style="fill:#ffffff">
      <path
         class="st0"
         d="m 512,282.163 c -0.881,-1.49 -21.826,-38.71 -63.998,-76.621 -21.106,-18.932 -47.584,-38.03 -79.667,-52.494 -32.041,-14.455 -69.743,-24.183 -112.337,-24.162 -42.595,-0.014 -80.296,9.707 -112.341,24.162 C 95.537,174.77 60.031,206.801 36.327,233.292 12.627,259.846 0.644,281.037 0,282.163 l 29.331,16.484 13.676,7.749 0.024,-0.042 0.007,-0.014 c 0.895,-1.629 20.324,-34.688 56.487,-66.326 18.068,-15.848 40.244,-31.331 66.274,-42.786 26.061,-11.456 55.91,-18.96 90.199,-18.974 35.104,0.014 65.561,7.881 92.056,19.798 39.685,17.848 70.324,45.171 90.808,68.131 10.245,11.462 17.938,21.785 22.98,29.1 2.525,3.657 4.385,6.566 5.574,8.49 0.594,0.966 1.02,1.679 1.286,2.119 l 0.252,0.448 0.042,0.063 9.707,-5.518 -9.734,5.469 z"
         id="path968"
         style="fill:#ffffff" />
      <path
         class="st0"
         d="m 255.999,210.339 c -47.71,0 -86.388,38.674 -86.388,86.391 0,47.71 38.678,86.384 86.388,86.384 47.71,0 86.388,-38.674 86.388,-86.384 -10e-4,-47.716 -38.679,-86.391 -86.388,-86.391 z"
         id="path970"
         style="fill:#ffffff" />
    </g>
    <g
       aria-label="T R O U V E R"
       transform="scale(0.94344118,1.0599495)"
       id="text6221"
       style="font-size:15.698px;line-height:1.25;font-family:'Bauhaus 93';-inkscape-font-specification:'Bauhaus 93, ';stroke-width:0.392452;fill:#ffffff">
      <path
         d="m 73.316225,103.076 v 7.45808 H 70.204219 V 103.076 h -2.383827 v -3.0047 h 7.871995 v 3.0047 z"
         id="path839"
         style="fill:#ffffff" />
      <path
         d="m 83.878648,102.88437 v 7.64971 H 80.766642 V 100.0713 h 3.993485 q 1.82428,0 2.8284,0.90448 1.119096,1.01178 1.119096,2.56778 0,1.58667 -1.387373,2.6751 l 1.79362,4.31542 h -3.265307 l -1.510013,-3.37262 v -2.69043 h 0.245282 q 0.981125,0 0.981125,-0.84315 0,-0.74351 -1.134426,-0.74351 z"
         id="path841"
         style="fill:#ffffff" />
      <path
         d="m 99.040095,99.810691 q 2.222865,0 3.809525,1.617319 1.59433,1.61733 1.59433,3.87085 0,2.29185 -1.602,3.89384 -1.60199,1.60199 -3.893835,1.60199 -2.276517,0 -3.886175,-1.60966 -1.609658,-1.60965 -1.609658,-3.88617 0,-2.29951 1.617323,-3.89384 1.624988,-1.594329 3.97049,-1.594329 z m -0.09198,3.081349 q -0.95813,0 -1.632654,0.70518 -0.674523,0.70518 -0.674523,1.70164 0,0.99645 0.674523,1.70164 0.682189,0.70518 1.632654,0.70518 0.965795,0 1.632655,-0.69752 0.67452,-0.70518 0.67452,-1.7093 0,-1.00412 -0.67452,-1.70164 -0.66686,-0.70518 -1.632655,-0.70518 z"
         id="path843"
         style="fill:#ffffff" />
      <path
         d="m 117.18324,100.0713 v 6.78356 q 0,1.79362 -1.0731,2.86673 -1.06544,1.0731 -2.84373,1.0731 -1.77063,0 -2.71343,-1.04244 -0.93513,-1.04245 -0.93513,-2.99703 v -6.68392 h 3.11201 v 6.67625 q 0,0.95813 0.68218,0.95813 0.6592,0 0.6592,-0.95813 v -6.67625 z"
         id="path845"
         style="fill:#ffffff" />
      <path
         d="m 130.52041,100.0713 -4.5607,11.06065 -4.53004,-11.06065 h 3.60257 l 0.95813,3.26531 1.05778,-3.26531 z"
         id="path847"
         style="fill:#ffffff" />
      <path
         d="m 140.70725,104.14144 v 2.33017 h -2.03124 q -0.41391,0 -0.59021,0.12264 -0.16863,0.12264 -0.16863,0.41391 0,0.3296 0.1763,0.43691 0.17629,0.0996 0.72051,0.0996 h 2.09256 v 2.98936 h -2.44515 q -1.72463,0 -2.63677,-0.82016 -0.91214,-0.82782 -0.91214,-2.38383 v -4.10079 q 0,-1.50235 0.85848,-2.33017 0.86615,-0.82783 2.42982,-0.82783 h 2.70576 v 3.0047 h -1.98525 q -0.80483,0 -0.80483,0.52122 0,0.3066 0.19163,0.42924 0.19163,0.11498 0.68219,0.11498 z"
         id="path849"
         style="fill:#ffffff" />
      <path
         d="m 149.729,102.88437 v 7.64971 h -3.11201 V 100.0713 h 3.99348 q 1.82428,0 2.8284,0.90448 1.1191,1.01178 1.1191,2.56778 0,1.58667 -1.38737,2.6751 l 1.79362,4.31542 h -3.26531 l -1.51001,-3.37262 v -2.69043 h 0.24528 q 0.98112,0 0.98112,-0.84315 0,-0.74351 -1.13442,-0.74351 z"
         id="path851"
         style="fill:#ffffff" />
    </g>
    <text
       xml:space="preserve"
       transform="scale(0.26458333)"
       id="text10277"
       style="font-style:normal;font-weight:normal;font-size:40px;line-height:1.25;font-family:sans-serif;white-space:pre;shape-inside:url(#rect10279);fill:#000000;fill-opacity:1;stroke:none" />
    <text
       xml:space="preserve"
       transform="scale(0.26458333)"
       id="text13877"
       style="font-style:normal;font-weight:normal;font-size:40px;line-height:1.25;font-family:sans-serif;white-space:pre;shape-inside:url(#rect13879);fill:#000000;fill-opacity:1;stroke:none" />
    <ellipse
       style="opacity:0;fill:#ffffff;stroke-width:0.264583"
       id="path35803"
       cx="97.351509"
       cy="61.23074"
       rx="10.607958"
       ry="8.0566769" />
    <ellipse
       style="opacity:0;fill:#1a1a1a;stroke-width:0.264583"
       id="path35851"
       cx="31.823875"
       cy="55.322514"
       rx="12.219293"
       ry="7.5195651" />
    <ellipse
       style="opacity:0;fill:#1a1a1a;stroke-width:0.264583"
       id="path35875"
       cx="34.912266"
       cy="55.322514"
       rx="4.2968941"
       ry="0.8056677" />
    <path
       style="opacity:0;fill:#1a1a1a;stroke-width:0.264583"
       id="path35877"
       sodipodi:type="arc"
       sodipodi:cx="37.463547"
       sodipodi:cy="-1.074224"
       sodipodi:rx="22.155861"
       sodipodi:ry="6.1767855"
       sodipodi:start="0"
       sodipodi:end="0.024647629"
       sodipodi:arc-type="slice"
       d="m 59.619408,-1.074224 a 22.155861,6.1767855 0 0 1 -0.0067,0.15222771 L 37.463547,-1.074224 Z" />
    <path
       d="m 121.07182,46.051952 c 2.76124,-0.0315 5.02519,2.18142 5.05668,4.94266 0.0315,2.76124 -2.18142,5.02519 -4.94267,5.05667 -2.76124,0.0315 -5.02519,-2.18142 -5.05667,-4.94266 -0.0315,-2.76124 2.18142,-5.02519 4.94266,-5.05667 z m 0.0285,2.49983 c -1.38062,0.0157 -2.48707,1.14772 -2.47133,2.52834 0.0157,1.38062 1.14772,2.48707 2.52834,2.47133 1.38062,-0.0157 2.48707,-1.14772 2.47133,-2.52834 -0.0157,-1.38062 -1.14772,-2.48707 -2.52834,-2.47133 z"
       id="Combined-Shape"
       style="fill:#000000;fill-rule:evenodd;stroke:none;stroke-width:0.0234374" />
  </g>
  <style
     type="text/css"
     id="style966">
	.st0{fill:#000000;}
</style>
</svg>
